<?xml version="1.0" standalone="no"?>
<!DOCTYPE svg PUBLIC "-//W3C//DTD SVG 20010904//EN"
 "http://www.w3.org/TR/2001/REC-SVG-20010904/DTD/svg10.dtd">
<svg version="1.0" xmlns="http://www.w3.org/2000/svg"
 width="512.000000pt" height="512.000000pt" viewBox="0 0 512.000000 512.000000"
 preserveAspectRatio="xMidYMid meet">
<g transform="translate(0.000000,512.000000) scale(0.100000,-0.100000)"
fill="#76BDFF" stroke="none">
<path d="M1480 4145 c-6 -8 -9 -19 -5 -25 4 -6 -21 -10 -73 -10 l-80 0 -21
-50 c-22 -51 -81 -208 -81 -216 0 -2 50 -4 111 -4 l111 0 -5 -107 c-4 -95 -9
-118 -41 -193 -50 -119 -47 -208 10 -296 26 -38 19 -93 -14 -125 -25 -23 -33
-25 -94 -21 l-67 4 -3 46 -3 47 -100 8 c-108 9 -311 2 -360 -11 -26 -8 -30
-13 -30 -45 0 -44 40 -35 -345 -79 l-285 -33 -3 -52 c-2 -42 0 -52 15 -57 14
-4 445 -56 466 -56 9 0 16 -105 26 -380 6 -146 15 -373 20 -505 5 -132 8 -241
7 -243 -2 -1 -105 -26 -230 -54 l-226 -52 0 -43 c0 -24 3 -43 7 -43 16 0 459
-93 578 -121 190 -45 190 -45 362 -2 l151 39 6 -55 c3 -31 8 -90 12 -131 3
-41 11 -83 16 -93 7 -14 5 -22 -8 -32 -16 -11 -12 -14 37 -28 209 -61 249 -60
318 10 48 49 51 51 426 218 127 56 254 116 282 133 l53 31 16 -30 c11 -23 12
-34 4 -44 -14 -17 -51 -11 502 -91 l118 -17 5 -31 c3 -17 14 -96 26 -176 34
-244 57 -319 97 -320 10 -1 4 -8 -17 -19 -42 -22 -38 -24 91 -41 105 -14 213
-1 273 34 22 13 150 79 285 147 l245 124 245 6 c261 6 309 13 703 105 l107 26
0 252 0 253 -67 11 c-38 7 -106 14 -153 18 -46 3 -87 7 -90 9 -3 2 -43 6 -90
10 -46 3 -86 8 -89 10 -4 2 -51 6 -106 10 -55 3 -113 8 -130 10 -16 2 -63 4
-102 6 l-73 2 0 126 c0 69 5 233 10 363 9 204 9 241 -4 266 -20 38 -137 148
-209 196 -53 34 -58 41 -52 65 25 95 76 350 85 421 6 47 27 193 46 325 19 132
34 254 34 270 -1 40 -18 69 -60 100 -91 67 -240 84 -795 88 -319 2 -354 0
-390 -16 -84 -38 -100 -72 -170 -372 -21 -88 -70 -263 -110 -390 -40 -126 -81
-257 -90 -289 l-17 -60 -15 27 c-7 15 -27 34 -43 42 -78 41 -359 85 -537 85
-62 0 -103 4 -103 10 0 6 -15 10 -32 10 -101 0 -136 11 -193 62 -30 27 -55 57
-55 66 0 9 14 44 30 76 22 44 30 73 30 113 0 70 -41 245 -50 217 -4 -10 -8 43
-9 119 l-1 137 93 0 c52 0 122 3 155 6 56 6 61 9 57 28 -17 90 -49 208 -59
221 -10 13 -31 17 -113 17 -96 0 -103 1 -118 24 -18 27 -37 31 -55 9z m30 -5
c0 -5 -8 -10 -17 -10 -15 0 -16 2 -3 10 19 12 20 12 20 0z m194 -47 c-21 -4
-21 -5 -6 -35 22 -45 28 -124 11 -145 -8 -9 -34 -25 -59 -36 -38 -17 -73 -21
-229 -25 -154 -4 -183 -2 -179 9 45 132 86 229 98 233 8 2 98 4 200 3 102 0
175 -2 164 -4z m2054 -133 c143 -10 244 -39 269 -76 12 -19 14 -39 10 -89 -9
-92 -39 -245 -48 -239 -4 2 -5 -12 -2 -32 4 -23 2 -35 -4 -31 -5 4 -8 -6 -5
-25 3 -22 1 -29 -7 -24 -8 6 -10 0 -5 -18 4 -16 2 -26 -5 -26 -6 0 -11 7 -11
16 0 8 -4 12 -10 9 -5 -3 -10 -1 -10 6 0 8 -5 7 -17 -2 -14 -12 -15 -12 -9 0
7 10 3 12 -14 6 -12 -4 -20 -3 -17 1 3 5 -16 9 -41 9 -26 0 -124 6 -219 13
-205 16 -835 19 -878 5 -21 -7 111 -12 445 -16 413 -5 663 -17 677 -31 12 -12
-66 -351 -111 -483 -13 -39 -21 -74 -18 -78 4 -4 -11 -3 -33 1 -22 5 -119 8
-215 7 -144 0 -189 -4 -254 -22 -163 -43 -184 -72 -202 -269 -6 -69 -8 -73
-28 -68 -11 3 -70 10 -131 17 l-110 11 -55 48 c-30 26 -89 72 -131 103 -61 44
-79 53 -90 44 -11 -10 -11 -9 -1 4 6 9 9 18 6 21 -5 6 18 85 150 503 40 127
92 311 116 410 44 189 66 251 93 274 49 40 79 42 442 36 193 -3 405 -10 473
-15z m-2295 -663 c-5 -32 -12 -59 -17 -60 -5 -1 -22 22 -39 52 -42 75 -41 137
5 256 25 63 38 117 44 180 8 80 9 64 12 -140 1 -126 -1 -256 -5 -288z m74 70
c-2 -23 -3 -1 -3 48 0 50 1 68 3 42 2 -26 2 -67 0 -90z m2393 18 c11 -13 10
-34 -4 -113 -47 -277 -83 -455 -89 -444 -4 6 13 121 38 255 48 260 52 302 33
310 -8 4 -9 6 -2 6 6 1 17 -6 24 -14z m-2403 -97 c-3 -8 -6 -5 -6 6 -1 11 2
17 5 13 3 -3 4 -12 1 -19z m-438 -103 c2 -3 -58 -4 -135 -3 -101 1 -125 3 -89
8 50 8 215 3 224 -5z m376 -5 c3 -5 2 -10 -4 -10 -5 0 -12 -19 -14 -42 -3 -41
-4 -41 -5 10 -2 48 8 66 23 42z m-542 -16 c63 -5 67 -7 67 -30 0 -23 -3 -24
-57 -23 -32 1 -87 4 -123 8 -58 5 -65 8 -62 26 7 35 3 35 175 19z m0 -70 c37
-3 67 -10 67 -16 0 -8 -36 -9 -117 -4 -64 3 -119 8 -121 10 -2 3 -1 10 3 16 4
6 25 9 53 5 26 -2 77 -7 115 -11z m-186 -26 c1 -12 -3 -28 -9 -35 -6 -8 -9
-15 -7 -18 3 -2 58 -9 124 -14 155 -14 526 -14 505 -1 -8 5 -39 10 -67 10 -47
0 -53 2 -53 21 0 19 4 20 50 14 45 -6 51 -5 73 20 l23 27 72 -13 c65 -12 71
-15 66 -34 -10 -32 -25 -41 -87 -54 -34 -7 -68 -22 -80 -34 -18 -18 -45 -25
-152 -38 l-130 -17 -400 50 c-220 27 -424 55 -455 61 l-55 13 195 23 c107 13
220 27 250 31 30 4 73 8 95 9 35 1 41 -2 42 -21z m553 12 c21 -7 19 -8 -17 -9
-24 -1 -43 4 -43 9 0 12 24 12 60 0z m-377 -26 c70 -5 77 -8 77 -27 0 -22 -1
-22 -120 -13 -117 9 -120 10 -120 33 0 23 3 24 43 19 23 -3 77 -8 120 -12z
m830 -31 c-18 -2 -48 -2 -65 0 -18 2 -4 4 32 4 36 0 50 -2 33 -4z m-1554 -17
c66 -17 186 -34 572 -81 157 -19 290 -35 295 -37 8 -2 164 16 237 27 21 4 27
1 27 -14 0 -23 -10 -25 -170 -46 -138 -18 -72 -23 -785 60 -121 14 -228 25
-237 25 -14 0 -18 8 -18 40 0 45 1 45 79 26z m2011 -31 c125 -20 222 -50 244
-74 37 -41 21 -58 -150 -151 -151 -83 -169 -90 -285 -115 -158 -33 -314 -73
-354 -89 -29 -12 -33 -12 -45 8 -21 34 -24 244 -3 281 9 17 15 40 14 53 0 13
3 20 9 17 6 -3 10 -1 10 4 0 14 -27 14 -35 1 -4 -6 -11 -8 -16 -4 -5 3 -23 -8
-39 -25 -32 -36 -36 -60 -49 -301 -7 -122 -8 -131 -9 -55 -2 156 14 333 34
363 15 24 15 25 1 13 -39 -31 -40 -41 -47 -701 0 -52 -3 -70 -10 -60 -7 10
-10 -28 -10 -116 0 -72 -2 -281 -5 -465 -2 -184 -3 -327 0 -319 2 8 9 211 16
450 8 239 16 413 19 385 3 -27 2 -111 -1 -185 -10 -199 -9 -429 1 -405 8 19 9
19 9 -2 1 -13 -4 -23 -10 -23 -7 0 -9 -11 -6 -27 6 -30 -16 -280 -26 -289 -11
-12 -118 19 -128 37 -39 74 -34 1444 7 1700 11 74 56 95 234 109 156 12 518 4
630 -15z m-903 -227 c-2 -18 -4 -4 -4 32 0 36 2 50 4 33 2 -18 2 -48 0 -65z
m2460 58 c175 -44 340 -144 436 -265 l29 -36 -6 -150 c-4 -82 -11 -289 -17
-460 -12 -357 -26 -483 -28 -254 -1 152 -6 169 -47 169 -29 0 -595 -203 -653
-235 -32 -18 -39 -19 -23 -6 23 20 31 37 10 25 -6 -4 -8 -3 -5 3 7 11 17 105
20 198 2 33 8 69 14 80 6 11 14 43 18 70 5 28 9 55 11 60 1 6 11 42 22 80 11
39 25 104 32 145 7 41 18 81 23 88 8 10 21 60 32 122 1 8 7 28 14 43 6 16 11
31 11 33 0 3 11 29 25 58 14 29 26 65 27 79 1 15 6 27 10 27 4 0 8 6 8 14 0 7
7 19 15 26 8 7 13 16 10 20 -3 5 -1 11 4 15 6 3 7 13 4 21 -5 13 -27 15 -157
10 -223 -7 -225 -8 -252 -39 -13 -16 -24 -36 -25 -45 0 -14 -2 -13 -8 3 -15
36 -22 -58 -24 -320 -2 -197 17 -1169 25 -1335 1 -19 1 -84 0 -145 l-2 -110
-43 -2 c-26 -2 -37 1 -29 6 10 6 4 10 -21 15 -19 4 -40 12 -46 19 -18 23 -54
251 -101 652 -17 143 -29 729 -21 977 10 267 16 287 95 327 82 42 145 51 336
47 147 -3 191 -8 277 -30z m-3097 -38 c0 -2 7 -239 15 -527 8 -288 17 -526 19
-529 3 -2 38 3 78 12 61 14 84 15 150 4 77 -11 78 -12 78 -41 0 -27 -2 -29
-27 -24 -128 25 -187 19 -552 -64 -135 -30 -177 -36 -183 -27 -6 10 -8 10 -8
1 0 -7 -7 -13 -15 -13 -10 0 -15 10 -15 30 0 21 5 30 16 30 8 0 101 18 204 41
104 22 198 41 210 42 19 1 20 7 20 112 0 60 -7 247 -15 415 -8 168 -15 358
-15 423 0 110 1 117 20 117 11 0 20 -1 20 -2z m2728 -21 c-15 -12 -32 -33 -37
-47 -9 -23 -10 -23 -10 -4 -1 22 43 74 63 74 6 0 -1 -10 -16 -23z m-2525 -8
l107 -12 0 -191 c0 -105 5 -323 11 -485 5 -161 8 -296 5 -298 -3 -3 -45 -1
-93 5 -52 7 -103 8 -124 3 l-36 -8 -7 381 c-3 209 -9 436 -13 504 l-6 123 24
-5 c13 -3 72 -10 132 -17z m161 -61 c3 -29 6 -213 7 -408 1 -195 4 -398 8
-450 l6 -95 95 -18 c52 -10 105 -20 118 -23 28 -6 33 -64 5 -64 -23 0 -245 38
-249 43 -4 4 -23 543 -29 850 -5 207 -4 217 14 217 15 0 19 -10 25 -52z m221
23 c28 -4 49 -11 48 -16 -8 -47 -23 -783 -18 -862 6 -84 5 -103 -6 -103 -21 0
-201 28 -204 32 -1 2 -5 220 -8 486 l-6 483 72 -7 c40 -4 95 -10 122 -13z
m1260 -201 c207 -10 491 -37 508 -47 5 -3 8 -50 5 -110 -4 -92 -7 -106 -26
-119 -20 -14 -22 -24 -22 -112 0 -84 16 -222 36 -314 6 -28 6 -28 -42 -28 -62
0 -265 26 -759 96 -552 78 -584 86 -617 154 -22 46 -38 146 -38 246 l0 81 53
-18 c102 -34 268 -52 921 -99 l430 -31 25 28 c15 15 17 20 5 10 -24 -20 -79
-22 -234 -7 -58 5 -310 25 -560 45 -461 36 -549 46 -607 70 -60 25 -36 48 92
90 98 32 227 53 388 64 176 12 219 12 442 1z m-561 -655 c440 -59 1067 -152
1074 -159 2 -2 5 -33 6 -67 2 -35 7 -87 11 -115 l7 -51 -93 14 c-52 8 -215 34
-364 58 -331 55 -767 121 -855 131 -101 11 -100 9 -100 123 0 54 3 101 7 105
4 4 18 4 32 1 13 -3 137 -21 275 -40z m2117 -272 c-5 -92 -13 -224 -17 -293
l-6 -125 -332 -164 c-182 -91 -335 -167 -340 -169 -5 -3 -6 6 -3 19 12 44 46
293 66 483 11 104 24 193 29 198 10 10 605 227 610 223 2 -2 -1 -79 -7 -172z
m96 115 c-2 -13 -4 -3 -4 22 0 25 2 35 4 23 2 -13 2 -33 0 -45z m-3079 -60
l202 -32 0 -40 0 -41 -63 -18 c-34 -10 -116 -34 -183 -53 l-121 -36 -134 30
c-74 17 -213 47 -309 68 -96 20 -178 40 -183 44 -4 3 91 27 210 53 120 25 238
51 263 56 52 11 52 11 318 -31z m489 20 c-3 -8 -6 -5 -6 6 -1 11 2 17 5 13 3
-3 4 -12 1 -19z m2582 -197 c-4 -90 -11 -166 -15 -170 -4 -3 -4 43 0 103 3 60
6 146 7 190 0 51 3 74 8 61 5 -11 4 -94 0 -184z m-2195 143 c127 -20 232 -37
233 -38 2 -1 -21 -27 -50 -58 -48 -51 -68 -63 -257 -148 -113 -50 -229 -104
-257 -120 -29 -15 -53 -25 -53 -20 0 4 12 88 26 186 29 201 43 234 97 234 17
0 135 -16 261 -36z m2454 -78 c161 -27 182 -38 182 -95 l-1 -36 -222 -108
c-122 -59 -225 -107 -229 -107 -4 0 -3 12 2 28 5 15 18 92 30 172 27 189 25
182 63 175 18 -3 96 -16 175 -29z m-1903 -4 c6 -4 10 -21 10 -38 0 -28 -2 -30
-25 -24 -14 4 -29 19 -37 38 -13 31 -13 32 14 32 16 0 33 -4 38 -8z m327 -43
c185 -28 217 -35 221 -51 3 -10 2 -18 -2 -18 -48 0 -477 83 -489 94 -12 12 61
5 270 -25z m1295 -246 c-3 -10 -5 -4 -5 12 0 17 2 24 5 18 2 -7 2 -21 0 -30z
m235 -59 c48 -4 85 -11 82 -15 -3 -5 -21 -9 -39 -9 -19 0 -98 -9 -176 -20 -78
-11 -144 -19 -146 -16 -2 2 27 20 64 39 45 23 78 34 98 31 17 -2 69 -6 117
-10z"/>
<path d="M3872 3680 c0 -14 2 -19 5 -12 2 6 2 18 0 25 -3 6 -5 1 -5 -13z"/>
<path d="M3863 3545 c0 -22 2 -30 4 -17 2 12 2 30 0 40 -3 9 -5 -1 -4 -23z"/>
<path d="M1464 2315 c0 -82 2 -115 3 -72 2 43 2 110 0 150 -1 40 -3 5 -3 -78z"/>
<path d="M3503 2803 c9 -2 23 -2 30 0 6 3 -1 5 -18 5 -16 0 -22 -2 -12 -5z"/>
</g>
</svg>