<?xml version="1.0" encoding="UTF-8"?>
<svg id="Layer_2" xmlns="http://www.w3.org/2000/svg" viewBox="0 0 2433.7 500">
    <defs>
        <style>.cls-1{stroke-width:0px;}</style>
    </defs>
    <g id="Layer_1-2">
        <path class="cls-1"
              d="m209.54,5.93c1.64,0,2.96-1.33,2.96-2.96s-1.33-2.96-2.96-2.96H0v250.04s71.09-5.8,91.3-125.01C111.51,5.83,209.54,5.93,209.54,5.93Z"/>
        <path class="cls-1"
              d="m283.33.06v249.98c126.44,0,135.74,122,135.74,122,0,1.64,1.33,2.96,2.96,2.96s2.96-1.33,2.96-2.96V0l-141.67.06Z"/>
        <path class="cls-1"
              d="m194.9,374.97c-15.43,108.74-121.1,119.11-121.1,119.11-1.64,0-2.96,1.33-2.96,2.96s1.33,2.96,2.96,2.96h209.54v-249.96s-73.8-.02-88.43,124.93Z"/>
        <path class="cls-1"
              d="m624.72,438.53c0,11.82,5.91,17.73,17.73,17.73,24.43,0,82.35-34.67,114.66-104.02,1.57-3.55,3.74-5.32,6.5-5.32,1.57,0,2.75.79,3.55,2.36.78,1.58.59,3.55-.59,5.91-14.58,37.04-34.38,69.74-59.4,98.11-25.03,28.37-79.3,42.55-103.72,42.55-13.8,0-23.94-3.75-30.44-11.23-6.5-7.48-9.75-17.53-9.75-30.14s4.33-30.73,13-55.56l69.15-197.4c.78-3.15,1.18-5.32,1.18-6.5,0-5.12-3.35-7.68-10.05-7.68h-37.23c-1.98,0-3.45-.39-4.43-1.18-.99-.78-1.48-1.77-1.48-2.96,0-1.57.78-2.96,2.36-4.14,1.57-1.18,3.55-1.77,5.91-1.77,30.73,0,55.75-6.5,75.06-19.5,19.3-13,36.05-33.29,50.24-60.87,1.97-3.55,4.52-5.32,7.68-5.32,1.57,0,2.85.5,3.84,1.48.98.99,1.27,2.27.89,3.84l-23.05,64.42c-1.18,3.55-1.77,6.5-1.77,8.87,0,6.31,3.74,9.46,11.23,9.46,6.7,0,16.74-.78,30.14-2.36,11.03-1.57,19.11-2.36,24.23-2.36,2.36,0,4.14.69,5.32,2.07,1.18,1.39,1.77,2.86,1.77,4.43,0,2.36-.89,4.34-2.66,5.91-1.77,1.58-4.24,2.36-7.39,2.36h-56.15c-9.46,0-15.76,4.73-18.91,14.18l-67.38,195.63c-6.7,18.13-10.05,31.13-10.05,39.01Z"/>
        <path class="cls-1"
              d="m856.27,49.05c0-5.51-1.58-9.55-4.73-12.12-3.16-2.56-8.27-3.84-15.37-3.84s-13.1.2-18.03.59c-4.93.4-9.16.59-12.71.59-5.91,0-8.87-1.57-8.87-4.73,0-3.93,3.55-5.91,10.64-5.91,11.03,0,26.1-1.27,45.21-3.84,19.11-2.56,33.39-5.81,42.85-9.75,3.55-1.18,9.16-3.15,16.84-5.91,7.68-2.75,13.49-4.14,17.44-4.14s5.91,1.39,5.91,4.14c0,1.18-.59,3.35-1.77,6.5-25.22,66.59-45.71,121.95-61.47,166.08l-46.69,128.84c-1.18,2.76-1.77,5.32-1.77,7.68s1.18,3.55,3.55,3.55c2.75,0,5.51-2.96,8.27-8.87,22.06-42.55,44.62-76.33,67.67-101.36,23.05-25.02,46.78-37.53,71.22-37.53,13.79,0,24.43,3.94,31.91,11.82,7.48,7.89,11.23,18.32,11.23,31.32s-3.75,30.94-11.23,52.6c-7.49,21.67-19.71,53-36.64,93.97l-18.91,46.1c-6.7,16.95-10.05,29.55-10.05,37.83s3.15,12.61,9.46,13c7.88.4,19.01-7.29,31.42-23.05,12.41-15.75,27.68-40.78,45.8-75.06,3.15-5.91,6.1-8.87,8.87-8.87,2.36,0,3.55.99,3.55,2.96s-.79,4.53-2.36,7.68c-20.89,41.37-40.78,75.06-59.69,101.06-18.91,26-40.2,39.01-61.86,39.01-26.8,0-40.19-11.42-40.19-34.28,0-7.88,1.27-16.25,3.84-25.12,2.56-8.87,7.18-21.57,13.89-38.12l22.46-54.96c14.57-35.85,25.02-62.35,31.32-79.49,6.3-17.14,9.46-29.64,9.46-37.53,0-12.61-4.34-18.91-13-18.91-13,0-27.58,7-43.74,20.98-16.16,13.99-32.71,34.97-49.65,62.94-16.95,27.98-32.31,61.47-46.1,100.47-4.34,13-7.09,24.23-8.27,33.69-1.18,9.46-1.77,19.31-1.77,29.55,0,7.09-.4,11.82-1.18,14.18-.79,7.49-5.23,13.7-13.3,18.62-8.08,4.92-17.05,7.39-26.89,7.39-20.49,0-30.73-9.84-30.73-29.55,0-9.06,1.97-19.7,5.91-31.92l121.16-358.16c4.73-14.97,7.09-25.02,7.09-30.14Z"/>
        <path class="cls-1"
              d="m1041.68,474.88c-13.99-15.96-20.98-38.31-20.98-67.08,0-33.49,8.47-69.05,25.41-106.68,16.94-37.62,38.8-69.15,65.6-94.56,26.79-25.41,53.98-38.12,81.56-38.12,17.73,0,32.11,4.43,43.14,13.3,11.03,8.87,16.55,20.98,16.55,36.35s-5.72,29.36-17.14,44.33c-11.43,14.98-27.78,28.87-49.06,41.67-21.28,12.81-46.3,22.96-75.06,30.44-6.31,1.58-12.22,5.13-17.73,10.64-5.52,5.52-8.87,11.43-10.05,17.73-2.76,14.18-4.14,27.98-4.14,41.37,0,18.13,4.14,31.72,12.41,40.78,8.27,9.07,18.91,13.59,31.92,13.59,18.52,0,36.94-9.65,55.26-28.96,18.32-19.3,35.17-46.49,50.53-81.56,1.57-3.93,3.74-5.91,6.5-5.91,1.57,0,2.75.79,3.55,2.36.78,1.58.59,3.55-.59,5.91-18.13,40.59-38.52,75.46-61.17,104.61-22.66,29.16-49.35,43.74-80.08,43.74-23.64,0-42.46-7.98-56.44-23.94Zm53.49-158.1c0,7.89,3.93,11.82,11.82,11.82,2.36,0,4.33-.19,5.91-.59,31.92-10.24,55.75-25.31,71.51-45.21,15.75-19.89,23.64-41.86,23.64-65.9s-6.9-34.28-20.69-34.28c-17.34,0-34.28,12.51-50.83,37.53-16.55,25.03-30.14,55.46-40.78,91.31-.4,1.18-.59,2.96-.59,5.32Z"/>
        <path class="cls-1"
              d="m1329.6,495.86c-11.82-1.58-19.71-2.36-23.64-2.36s-8.77.59-14.48,1.77c-5.72,1.18-9.56,1.77-11.53,1.77-3.94,0-5.91-2.36-5.91-7.09,0-28.76-3.94-64.62-11.82-107.57l-2.36-13.59-.59-2.96c0-2.75,1.38-4.14,4.14-4.14,2.36,0,4.14,2.17,5.32,6.5,7.88,27.58,15.37,49.35,22.46,65.31,7.09,15.96,17.33,28.96,30.73,39.01,13.39,10.05,31.32,15.07,53.78,15.07,14.18,0,24.92-3.74,32.21-11.23,7.29-7.48,10.93-17.33,10.93-29.55,0-15.75-5.72-30.73-17.14-44.92-11.43-14.18-31.72-33.1-60.87-56.74-25.62-20.09-43.25-37.13-52.9-51.12-9.66-13.98-14.48-29.45-14.48-46.39,0-24.03,7.78-43.53,23.34-58.51,15.56-14.97,34.77-22.46,57.62-22.46,9.46,0,20.09,1.18,31.92,3.55,11.03,1.58,19.11,2.36,24.23,2.36s10.44-.59,15.96-1.77c5.51-1.18,9.25-1.77,11.23-1.77,4.33,0,6.5,2.36,6.5,7.09-.4,24.82.98,53.78,4.14,86.88,1.18,7.49,1.77,13.99,1.77,19.5,0,5.13-1.39,7.68-4.14,7.68-1.98,0-3.55-2.36-4.73-7.09-12.61-69.34-42.55-104.02-89.83-104.02-11.43,0-20.59,3.94-27.48,11.82-6.9,7.89-10.34,17.93-10.34,30.14s4.92,24.33,14.78,35.16c9.84,10.84,26.79,25.52,50.83,44.03,28.76,22.86,48.85,42.17,60.28,57.92,11.42,15.76,17.14,34.28,17.14,55.56,0,27.98-7.98,49.35-23.94,64.12-15.96,14.78-36.15,22.16-60.58,22.16-11.04,0-25.22-1.39-42.55-4.14Z"/>
        <path class="cls-1"
              d="m1489.03,491.73c-12.22,1.18-24.63,1.77-37.23,1.77-3.16,0-5.32-.4-6.5-1.18-1.18-.79-1.77-2.16-1.77-4.14,0-3.15,2.56-4.73,7.68-4.73,20.09,0,34.58-4.04,43.44-12.12,8.87-8.07,13.3-24.13,13.3-48.17V74.47c0-16.15-1.58-26.69-4.73-31.62-3.16-4.92-7.89-7.39-14.18-7.39-7.49,0-15.27.5-23.35,1.48-8.08.99-13.1,1.68-15.07,2.07h-2.36c-3.16,0-4.73-1.38-4.73-4.14s2.75-4.73,8.27-5.91c9.06-1.57,19.99-4.33,32.8-8.27,12.8-3.93,21.37-6.5,25.71-7.68,25.21-8.66,41.57-13,49.06-13,6.7,0,10.05,3.55,10.05,10.64,0,14.18-.2,27.39-.59,39.6-.4,12.22-.79,22.86-1.18,31.92-1.58,36.25-2.36,64.23-2.36,83.92v43.74c0,9.07,1.97,13.59,5.91,13.59,2.75,0,6.3-2.56,10.64-7.68,14.57-16.55,28.46-28.86,41.67-36.94,13.2-8.07,26.69-12.12,40.48-12.12,22.85,0,40.09,7.3,51.71,21.87,11.62,14.58,17.44,35.86,17.44,63.83v170.8c0,23.64,4.33,39.6,13,47.87,8.66,8.27,21.66,12.41,39.01,12.41,2.75,0,4.63.3,5.61.89.98.59,1.48,1.87,1.48,3.84,0,3.55-2.57,5.32-7.68,5.32-9.46,0-19.9-.59-31.32-1.77-14.98-.79-25.62-1.18-31.92-1.18h-33.1c-8.27,0-19.5.39-33.69,1.18l-28.96.59h-6.5l-32.51-.59c-14.18-.79-25.41-1.18-33.69-1.18h-32.51c-5.91,0-16.35.39-31.32,1.18ZM1559.36,0h-.59.59Zm17.73,467.79c7.88,10.44,22.85,15.86,44.92,16.25,20.88-.39,35.06-5.71,42.55-15.96,7.48-10.24,11.23-27.58,11.23-52.01v-164.89c0-16.15-3.35-28.07-10.05-35.76-6.7-7.68-17.34-11.53-31.92-11.53-10.25,0-20.69,2.27-31.32,6.8-10.64,4.53-19.5,11.23-26.6,20.09-7.09,8.87-10.64,19.41-10.64,31.62v153.66c0,24.04,3.93,41.28,11.82,51.71Z"/>
        <path class="cls-1"
              d="m1803.65,458.93c-19.31-27.38-28.96-66.09-28.96-116.14,0-32.3,4.92-61.85,14.78-88.65,9.84-26.79,23.94-48.07,42.26-63.83,18.32-15.75,39.5-23.64,63.53-23.64,17.73,0,33.59,4.24,47.58,12.71,13.98,8.48,24.91,19.8,32.8,33.98,7.88,14.18,11.82,29.36,11.82,45.51,0,11.82-1.18,20.69-3.55,26.6-2.36,5.91-7.09,10.25-14.18,13-7.09,2.76-17.73,4.14-31.92,4.14h-82.15c-7.49,0-13.5,2.27-18.03,6.8s-7,10.15-7.39,16.84v12.41c0,35.07,6.89,63.34,20.68,84.81,13.79,21.48,32.7,32.21,56.74,32.21,16.15,0,31.71-6.59,46.69-19.8,14.97-13.2,27.19-36.35,36.64-69.44.78-2.36,1.67-4.14,2.66-5.32.98-1.18,2.07-1.77,3.25-1.77,1.97,0,2.96.99,2.96,2.96s-.2,3.75-.59,5.32c-10.64,45.31-25.52,78.71-44.62,100.18-19.12,21.48-42.85,32.21-71.22,32.21-33.89,0-60.49-13.69-79.79-41.07Zm34.87-171.1c4.33,4.73,10.05,7.09,17.14,7.09h40.19c13,0,21.96-3.05,26.89-9.16,4.92-6.1,7.39-15.66,7.39-28.66,0-22.46-3.55-41.08-10.64-55.85-7.09-14.78-17.73-22.16-31.92-22.16s-26.11,8.27-35.76,24.82c-9.66,16.55-16.06,38.62-19.21,66.19-.4,7.09,1.57,13,5.91,17.73Z"/>
        <path class="cls-1"
              d="m2043.62,458.93c-19.31-27.38-28.96-66.09-28.96-116.14,0-32.3,4.92-61.85,14.78-88.65,9.84-26.79,23.94-48.07,42.26-63.83,18.32-15.75,39.5-23.64,63.53-23.64,17.73,0,33.59,4.24,47.58,12.71,13.98,8.48,24.91,19.8,32.8,33.98,7.88,14.18,11.82,29.36,11.82,45.51,0,11.82-1.18,20.69-3.55,26.6-2.36,5.91-7.09,10.25-14.18,13-7.09,2.76-17.73,4.14-31.92,4.14h-82.15c-7.49,0-13.5,2.27-18.03,6.8-4.53,4.53-7,10.15-7.39,16.84v12.41c0,35.07,6.89,63.34,20.69,84.81,13.79,21.48,32.7,32.21,56.74,32.21,16.15,0,31.71-6.59,46.69-19.8,14.97-13.2,27.19-36.35,36.64-69.44.78-2.36,1.67-4.14,2.66-5.32.98-1.18,2.07-1.77,3.25-1.77,1.97,0,2.96.99,2.96,2.96s-.2,3.75-.59,5.32c-10.64,45.31-25.52,78.71-44.62,100.18-19.12,21.48-42.85,32.21-71.22,32.21-33.89,0-60.49-13.69-79.79-41.07Zm34.87-171.1c4.33,4.73,10.05,7.09,17.14,7.09h40.19c13,0,21.96-3.05,26.89-9.16,4.92-6.1,7.39-15.66,7.39-28.66,0-22.46-3.55-41.08-10.64-55.85-7.09-14.78-17.73-22.16-31.92-22.16s-26.11,8.27-35.76,24.82c-9.66,16.55-16.06,38.62-19.21,66.19-.4,7.09,1.57,13,5.91,17.73Z"/>
        <path class="cls-1"
              d="m2430.16,353.43c2.36,0,3.55,2.17,3.55,6.5-4.34,47.28-13.3,82.45-26.89,105.5-13.59,23.05-33.2,34.57-58.81,34.57-23.25,0-40.88-8.48-52.9-25.41-12.02-16.94-18.03-45.3-18.03-85.11v-184.99c0-4.73-1.48-8.57-4.43-11.52s-6.8-4.43-11.53-4.43h-29.55c-3.15,0-5.41-.39-6.8-1.18-1.38-.78-2.07-1.97-2.07-3.55,0-3.55,2.96-5.32,8.87-5.32,24.82,0,45.31-6.99,61.47-20.98,16.15-13.98,25.41-35.36,27.78-64.13.78-3.55,1.57-6,2.36-7.39.78-1.38,2.16-2.07,4.14-2.07,2.75,0,4.43.59,5.02,1.77.59,1.18.89,3.75.89,7.68v68.56c0,5.91,1.97,10.44,5.91,13.59,3.93,3.16,9.06,4.73,15.37,4.73,7.48,0,18.71-1.57,33.69-4.73,9.06-1.97,15.56-2.96,19.5-2.96,6.7,0,10.05,2.76,10.05,8.27,0,5.13-3.55,7.68-10.64,7.68h-56.74c-4.73,0-8.57,1.48-11.52,4.43s-4.43,6.8-4.43,11.52v169.62c0,28.77,3.15,50.63,9.46,65.6,6.3,14.98,16.35,22.46,30.14,22.46,11.82,0,22.46-8.57,31.92-25.71,9.46-17.14,15.96-42.64,19.5-76.54.39-4.33,1.97-6.5,4.73-6.5Z"/>
    </g>
</svg>