<svg width="94" height="20" viewBox="0 0 94 20" fill="none" xmlns="http://www.w3.org/2000/svg">
<path d="M93.1106 14.3975C93.1343 14.2084 93.1815 14.1375 93.2997 14.1375C93.3943 14.1375 93.4416 14.2084 93.4416 14.3975C93.1106 18.1327 92.0941 20.0003 90.0137 20.0003C88.2407 20.0003 87.1769 18.8892 87.1769 15.5795V8.18007C87.1769 7.80182 86.9168 7.54178 86.5386 7.54178H85.3566C85.0965 7.54178 85.002 7.4945 85.002 7.35265C85.002 7.21081 85.0965 7.13989 85.3566 7.13989C87.2478 7.13989 88.7371 6.12335 88.9263 3.73567C88.9735 3.45198 89.0208 3.35742 89.1863 3.35742C89.3991 3.35742 89.4227 3.42834 89.4227 3.73567V6.47796C89.4227 6.97441 89.7773 7.21081 90.2738 7.21081C90.983 7.21081 91.9995 6.90348 92.4014 6.90348C92.6614 6.90348 92.8033 7.02169 92.8033 7.23445C92.8033 7.42357 92.6614 7.54178 92.3778 7.54178H90.1083C89.73 7.54178 89.47 7.80182 89.47 8.18007V14.9649C89.47 17.1634 89.8955 18.4873 91.0539 18.4873C91.9286 18.4873 92.8033 17.2343 93.1106 14.3975Z" fill="#090A1F"/>
<path d="M81.2483 19.9992C78.5769 19.9992 76.8984 17.7534 76.8984 13.7109C76.8984 9.83383 78.766 6.66602 81.7211 6.66602C83.9196 6.66602 85.409 8.41541 85.409 10.3539C85.409 11.6778 85.1253 12.1033 83.4232 12.1033H80.1372C79.5462 12.1033 79.1443 12.5052 79.1206 13.0489V13.5454C79.1206 16.2877 80.2554 18.2262 82.2175 18.2262C83.2813 18.2262 84.6998 17.5879 85.5508 14.6565C85.6454 14.4201 85.6927 14.3728 85.7872 14.3728C85.9291 14.3728 85.9291 14.4674 85.8818 14.7038C85.0307 18.3917 83.4705 19.9992 81.2483 19.9992ZM79.2152 10.8031C79.1916 11.3705 79.5698 11.796 80.1372 11.796H81.7447C82.8322 11.796 83.1159 11.2759 83.1159 10.283C83.1159 8.62817 82.6194 7.16246 81.4138 7.16246C80.279 7.16246 79.4516 8.60453 79.2152 10.8031Z" fill="#090A1F"/>
<path d="M72.0588 19.9992C69.3875 19.9992 67.709 17.7534 67.709 13.7109C67.709 9.83383 69.5766 6.66602 72.5316 6.66602C74.7302 6.66602 76.2195 8.41541 76.2195 10.3539C76.2195 11.6778 75.9358 12.1033 74.2337 12.1033H70.9477C70.3567 12.1033 69.9548 12.5052 69.9312 13.0489V13.5454C69.9312 16.2877 71.0659 18.2262 73.0281 18.2262C74.0919 18.2262 75.5103 17.5879 76.3614 14.6565C76.4559 14.4201 76.5032 14.3728 76.5978 14.3728C76.7396 14.3728 76.7396 14.4674 76.6923 14.7038C75.8413 18.3917 74.281 19.9992 72.0588 19.9992ZM70.0257 10.8031C70.0021 11.3705 70.3803 11.796 70.9477 11.796H72.5553C73.6427 11.796 73.9264 11.2759 73.9264 10.283C73.9264 8.62817 73.43 7.16246 72.2243 7.16246C71.0896 7.16246 70.2621 8.60453 70.0257 10.8031Z" fill="#090A1F"/>
<path d="M57.9268 19.6215C57.123 19.6215 56.1301 19.7397 55.1845 19.7397C54.9481 19.7397 54.8535 19.6925 54.8535 19.527C54.8535 19.3851 54.9481 19.3379 55.1608 19.3379C56.6502 19.3379 57.4303 18.9596 57.4303 16.9265V2.97869C57.4303 1.53663 57.0757 1.41842 56.6738 1.41842C56.0592 1.41842 55.3972 1.53663 55.1372 1.56027C54.9481 1.58391 54.8535 1.53663 54.8535 1.39478C54.8535 1.27658 54.9481 1.20566 55.1845 1.15838C56.5793 0.921977 58.7542 0 59.487 0C59.6762 0 59.8889 0.0709217 59.8889 0.425528C59.8889 2.2222 59.7234 4.51532 59.7234 6.64296V8.39235C59.7234 9.007 59.9835 9.10156 60.3854 8.62875C61.4965 7.37581 62.513 6.6666 63.6714 6.6666C65.5153 6.6666 66.4373 7.87226 66.4373 10.0945V16.9265C66.4373 18.9596 67.2647 19.3379 68.5177 19.3379C68.7304 19.3379 68.8014 19.3851 68.8014 19.527C68.8014 19.6688 68.7304 19.7397 68.494 19.7397C67.7612 19.7397 66.6974 19.6215 65.9645 19.6215H64.6406C63.695 19.6215 62.9622 19.6925 62.1348 19.6925H62.0875C62.0638 19.6925 62.0402 19.6925 61.9929 19.6925H61.922C61.8984 19.6925 61.8984 19.6925 61.8747 19.6925C60.9527 19.6925 60.1962 19.6215 59.227 19.6215H57.9268ZM59.4634 0H59.487H59.4634ZM59.7234 16.6429C59.7234 18.4395 60.1253 19.3379 61.9929 19.3615C63.7423 19.3379 64.1442 18.4868 64.1442 16.6429V10.0472C64.1442 8.74695 63.6241 8.15594 62.4657 8.15594C61.331 8.15594 59.7234 8.93608 59.7234 10.4963V16.6429Z" fill="#090A1F"/>
<path d="M52.1452 19.9992C50.9159 19.9992 50.183 19.7392 49.4974 19.7392C49.0719 19.7392 48.7173 19.881 48.4573 19.881C48.3154 19.881 48.2209 19.8101 48.2209 19.5973C48.2209 17.4224 47.7244 15.2948 47.6535 14.751C47.6062 14.5619 47.6771 14.4674 47.7953 14.4674C47.9135 14.4674 47.9608 14.5383 48.0081 14.7274C48.7646 17.3751 49.4502 19.5028 52.287 19.5028C53.469 19.5028 54.0128 18.7935 54.0128 17.8716C54.0128 16.5477 53.0671 15.5785 50.8922 13.8054C48.8591 12.1979 48.1972 11.2523 48.1972 9.90475C48.1972 7.9426 49.6629 6.66602 51.4359 6.66602C52.4052 6.66602 52.9489 6.90242 53.6818 6.90242C54.2019 6.90242 54.5092 6.76058 54.7692 6.76058C54.9111 6.76058 55.0293 6.8315 55.0293 7.04426C55.0057 9.4083 55.2421 10.5903 55.2657 11.2995C55.2657 11.5359 55.1948 11.6069 55.1002 11.6069C55.0057 11.6069 54.9584 11.5359 54.9111 11.3232C54.391 8.43905 53.1144 7.16246 51.3177 7.16246C50.3721 7.16246 49.8048 7.89532 49.8048 8.84093C49.8048 9.92839 50.774 10.7322 52.4288 12.0087C54.5565 13.7109 55.5257 14.751 55.5257 16.5477C55.5257 18.8881 53.9655 19.9992 52.1452 19.9992Z" fill="#090A1F"/>
<path d="M41.1379 19.9533C39.2703 19.9533 38.041 18.6531 38.041 16.3126C38.041 12.2938 41.4689 6.73828 44.944 6.73828C46.3388 6.73828 47.3317 7.47113 47.3317 8.72408C47.3317 10.4735 45.2277 12.4356 41.6816 13.3812C41.1852 13.4994 40.6651 14.0195 40.5705 14.516C40.4523 15.1306 40.4051 15.698 40.4051 16.1708C40.4051 17.7074 41.2088 18.3457 42.1781 18.3457C43.6674 18.3457 45.1804 16.6909 46.4097 13.925C46.5752 13.5231 46.9298 13.6886 46.788 14.0195C45.7951 16.2417 43.9275 19.9533 41.1379 19.9533ZM41.0433 12.4593C40.9251 12.9794 41.2088 13.263 41.7289 13.1212C44.4003 12.2465 45.535 10.4735 45.535 8.67679C45.535 7.87302 45.3223 7.30565 44.7076 7.30565C43.2183 7.30565 41.8235 9.88246 41.0433 12.4593Z" fill="#090A1F"/>
<path d="M31.9184 3.16782C32.3202 1.93852 32.3912 1.32386 31.3983 1.32386C30.8309 1.32386 30.4999 1.37115 30.169 1.37115C29.9562 1.37115 29.8144 1.32386 29.8144 1.18202C29.8144 1.01654 29.9562 0.945617 30.2399 0.945617C30.9255 0.945617 32.9112 0.756494 33.7623 0.401888C34.3297 0.212764 34.8261 0 35.1334 0C35.3935 0 35.4171 0.118202 35.2989 0.425528C34.4715 2.60045 33.5023 5.20089 32.8403 7.06849L30.9727 12.2221C30.8545 12.5531 30.9018 12.6713 31.0437 12.6713C31.1382 12.6713 31.2564 12.5767 31.3746 12.3167C32.9349 9.33797 34.8025 6.76116 36.9301 6.76116C38.0649 6.76116 38.6559 7.47037 38.6559 8.48691C38.6559 9.92898 37.4502 12.5531 35.9845 16.1937C35.4644 17.4939 35.4408 18.1795 35.9609 18.2268C36.5992 18.2504 37.5448 17.0684 39.0105 14.3025C39.1523 14.0188 39.2469 13.9478 39.3651 13.9478C39.5306 13.9478 39.5778 14.066 39.4124 14.3734C38.254 16.6665 36.481 20.118 34.4715 19.9762C33.2186 19.9052 32.9349 19.2197 32.9822 18.4632C33.0295 17.8722 33.2186 17.2575 33.6914 16.0755C34.9443 12.9313 36.2209 10.1181 36.2209 9.19612C36.2209 8.67603 36.0554 8.43963 35.7008 8.43963C34.2115 8.43963 31.8711 10.8982 30.1217 15.8154C29.5307 17.5175 29.7907 18.4395 29.6725 18.9123C29.6016 19.5506 28.7978 19.9525 28.065 19.9525C27.0721 19.9525 26.4574 19.3615 27.0721 17.4939L31.9184 3.16782Z" fill="#090A1F"/>
<path d="M24.421 15.9807C24.2556 16.4299 24.0192 17.1627 24.0192 17.541C24.0192 17.9902 24.2319 18.2502 24.7284 18.2502C25.7213 18.2502 26.8796 16.7845 28.1326 14.0895C28.2035 13.924 28.3217 13.8767 28.3926 13.8767C28.5108 13.8767 28.6054 13.9949 28.5108 14.2077C27.447 16.8791 25.2721 19.8341 23.1681 19.8341C22.0334 19.8341 21.5605 19.1485 21.5605 18.1793C21.5605 17.5646 21.7733 16.8318 22.0806 15.9571L24.8466 8.06118C24.9411 7.75386 24.9175 7.49381 24.492 7.49381H23.0026C22.8371 7.49381 22.7662 7.39925 22.7662 7.32833C22.7662 7.21012 22.9081 7.09192 23.0972 7.09192C25.6267 7.09192 27.0215 6.00446 28.1089 3.87683C28.1799 3.73498 28.3217 3.66406 28.4163 3.66406C28.5581 3.66406 28.629 3.75862 28.6054 3.87683L27.6834 6.45363C27.5416 6.85552 27.5652 7.18649 28.0617 7.18649C28.8418 7.18649 29.5983 6.99736 30.2366 6.99736C30.4257 6.99736 30.5203 7.1392 30.5203 7.25741C30.5203 7.42289 30.3784 7.58837 30.1184 7.58837H27.8725C27.5652 7.58837 27.2579 7.73021 27.116 8.15574L24.421 15.9807Z" fill="#090A1F"/>
<path d="M7.87135 14.9419C6.67371 19.922 2.05135 19.7522 1.94684 19.8024C1.84233 19.8526 1.94684 19.9243 1.94684 19.9243H12.1273V9.96298C12.1273 9.96298 8.96327 9.87809 7.87015 14.9407L7.87135 14.9419Z" fill="#090A1F"/>
<path d="M12.127 0.0023914V9.96376C12.2122 9.96376 12.2975 9.96615 12.3816 9.96974C12.3828 9.96974 12.3852 9.96974 12.3864 9.96974C12.8825 9.99485 13.3594 10.0929 13.8075 10.2519C16.5391 11.285 16.8346 14.7478 16.9139 14.9438C17.0076 15.1734 17.1301 14.9438 17.1301 14.9438V0L12.127 0.0023914Z" fill="#090A1F"/>
<path d="M4.27761 4.98128C4.27761 4.98128 4.27761 4.98009 4.27761 4.97889C4.31365 4.84497 4.34848 4.70627 4.38212 4.56518C5.66984 -0.087286 9.69519 0.303708 9.87418 0.216422C10.058 0.126744 9.87418 0.0023914 9.87418 0.0023914L0 0V9.96376C0 9.96376 2.93463 9.96376 4.27761 4.98248V4.98128Z" fill="#090A1F"/>
</svg>
