<svg width="18" height="20" viewBox="0 0 18 20" fill="none" xmlns="http://www.w3.org/2000/svg">
<g clip-path="url(#clip0_1187_47540)">
<path d="M7.87135 14.9415C6.67371 19.9216 2.05135 19.7518 1.94684 19.802C1.84233 19.8522 1.94684 19.924 1.94684 19.924H12.1273V9.96261C12.1273 9.96261 8.96327 9.87772 7.87015 14.9403L7.87135 14.9415Z" fill="#090A1F"/>
<path d="M12.127 0.0023914V9.96376C12.2122 9.96376 12.2975 9.96615 12.3816 9.96974C12.3828 9.96974 12.3852 9.96974 12.3864 9.96974C12.8825 9.99485 13.3594 10.0929 13.8075 10.2519C16.5391 11.285 16.8346 14.7478 16.9139 14.9438C17.0076 15.1734 17.1301 14.9438 17.1301 14.9438V0L12.127 0.0023914Z" fill="#090A1F"/>
<path d="M4.27761 4.98128C4.27761 4.98128 4.27761 4.98009 4.27761 4.97889C4.31365 4.84497 4.34848 4.70627 4.38212 4.56518C5.66985 -0.087286 9.69519 0.303708 9.87418 0.216422C10.058 0.126744 9.87418 0.0023914 9.87418 0.0023914L0 0V9.96376C0 9.96376 2.93463 9.96376 4.27761 4.98248V4.98128Z" fill="#090A1F"/>
</g>
<defs>
<clipPath id="clip0_1187_47540">
<rect width="17.1309" height="19.9239" fill="white"/>
</clipPath>
</defs>
</svg>
