<svg xmlns="http://www.w3.org/2000/svg" width="160" height="160" fill="none">
    <g fill="#76BDFF" clip-path="url(#a)">
        <path d="M73.942 119.988c-9.577 39.993-46.544 38.629-47.38 39.032-.835.404 0 .98 0 .98h81.417V80.005s-25.304-.682-34.046 39.973l.01.01zM107.989.02v79.994c.682 0 1.364.02 2.036.048h.039a39.84 39.84 0 0 1 11.364 2.267c21.846 8.296 24.209 36.103 24.843 37.678.749 1.844 1.729 0 1.729 0V0l-40.011.02zM45.21 40.002v-.019c.287-1.075.566-2.19.835-3.322C56.343-.701 88.535 2.439 89.966 1.738c1.47-.72 0-1.719 0-1.719L11 0v80.014s23.469 0 34.21-40.002v-.01z"/>
    </g>
    <defs>
        <clipPath id="a">
            <path fill="#fff" d="M11 0h137v160H11z"/>
        </clipPath>
    </defs>
</svg>